<svg width="435" height="432" viewBox="0 0 435 432" fill="none" xmlns="http://www.w3.org/2000/svg">
<g filter="url(#filter0_d_57_217)">
<path opacity="0.8" d="M193.243 236.611C174.702 226.485 179.459 177.073 198.854 178.537C211.785 179.513 225.935 184.393 239.963 196.472C276.435 227.583 244.598 264.672 193.243 236.611Z" fill="#BB8493"/>
<path opacity="0.8" d="M130.056 277.849C126.763 262.842 155.917 242.834 164.334 254.424C169.945 262.11 173.97 272.359 174.092 285.779C174.214 320.551 139.083 319.575 130.056 277.849Z" fill="#DBAFA0"/>
<path opacity="0.5" d="M125.665 229.291C138.465 229.291 148.842 219.513 148.842 207.452C148.842 195.391 138.465 185.613 125.665 185.613C112.865 185.613 102.488 195.391 102.488 207.452C102.488 219.513 112.865 229.291 125.665 229.291Z" fill="#704264"/>
<g filter="url(#filter1_d_57_217)">
<path d="M382.56 384.115C382.804 383.871 382.316 384.115 382.072 384.115C381.462 384.237 380.853 384.237 380.365 384.359C378.779 384.481 377.071 384.603 375.485 384.603C370.85 384.725 366.337 384.725 361.701 384.725C351.089 384.725 340.476 384.847 329.864 384.847C325.838 384.847 321.935 384.481 318.031 384.237C316.08 384.115 314.128 383.993 312.298 383.871C310.957 383.749 309.981 383.749 309.859 382.285C309.859 381.553 309.615 380.821 309.493 380.089C309.493 379.845 309.249 379.601 309.005 379.601C309.005 379.479 309.005 379.479 308.883 379.357C306.809 375.575 304.003 371.549 303.028 367.279C302.296 364.107 301.93 360.812 301.32 357.64C300.466 353.37 298.88 349.588 297.904 345.318C297.294 342.512 296.197 339.828 295.709 337.021C295.221 334.215 295.343 331.409 295.099 328.603C294.611 323.113 293.879 317.501 293.025 312.01C292.171 306.642 291.195 301.152 289.244 296.028C286.56 289.195 283.022 282.851 280.095 276.141C276.801 268.699 274.85 261.256 273.63 253.204C271.312 238.075 270.702 222.337 264.603 208.062C263.139 204.646 261.554 201.474 258.992 198.668C257.772 197.326 256.552 195.984 255.21 194.642C255.332 194.275 255.21 193.909 254.844 193.665C254.113 193.299 253.503 192.811 252.771 192.323C252.283 191.835 251.795 191.347 251.185 190.859C245.94 186.345 240.085 182.441 233.62 179.757C226.788 176.951 219.348 176.219 212.273 174.023C204.71 171.705 197.391 168.532 189.828 165.97C182.265 163.286 174.458 161.7 166.529 160.236C162.382 159.382 158.234 158.528 154.087 157.43C151.037 156.576 147.622 155.356 144.816 153.648C141.279 151.452 141.767 147.67 141.645 144.009C141.645 143.155 141.523 142.301 141.523 141.447C141.523 141.203 141.523 141.081 141.523 140.837C141.523 140.349 141.523 139.983 141.401 139.495C141.279 136.933 141.157 134.371 140.913 131.809C140.303 124.001 139.449 116.192 138.107 108.384C136.643 100.21 134.204 92.1573 132.984 83.9829C132.13 78.1267 130.91 72.3925 129.08 66.7802C128.105 63.8521 127.129 61.046 126.153 58.1179C126.031 56.0438 126.275 54.2137 126.397 52.1396C126.641 49.2115 125.665 46.1614 124.811 43.3553C124.079 40.7932 122.737 38.2311 122.493 35.5469C122.249 33.2289 122.371 31.0328 122.371 28.7147C122.371 27.4946 122.737 20.2963 119.566 22.2484C117.858 23.3464 117.248 26.3966 117.004 28.2266C117.004 28.4707 117.004 28.5927 116.882 28.8367C116.76 26.2746 116.638 23.8345 116.272 21.2724C116.15 19.9303 115.906 18.1002 114.442 17.4902C112.979 16.8802 112.247 18.3442 111.759 19.4423C111.515 19.9303 111.393 20.4183 111.271 20.9063C110.661 18.2222 109.685 14.4401 107.367 14.5621C106.148 14.6841 105.782 15.9041 105.538 17.0022C105.294 18.2222 105.05 19.4423 104.928 20.6623C104.074 18.3442 102.488 14.4401 99.9265 14.5621C95.9011 14.9281 98.9507 25.7865 99.4386 27.8606C100.049 30.7888 100.414 33.7169 100.902 36.645C100.536 36.523 100.292 36.279 99.9265 36.157C98.0968 35.1809 96.1451 34.3269 94.0714 34.2049C88.7041 33.9609 92.2416 39.5731 94.5593 41.2812C97.1209 43.1113 99.5606 44.6973 101.878 46.8934C103.952 48.8455 105.66 51.2856 107.489 53.4817C108.221 54.4577 108.831 55.3118 109.319 56.5318C109.807 57.6299 110.173 58.8499 110.539 60.07C111.149 62.5101 111.759 64.9502 112.125 67.5123C112.979 73.0025 113.833 78.4927 114.686 83.9829C115.54 88.9852 116.394 93.9874 117.126 99.1116C117.736 102.894 117.858 106.432 117.98 110.214C118.102 113.996 118.346 117.534 118.712 121.194C119.2 126.685 118.956 132.175 118.468 137.787C118.224 140.349 117.98 142.911 117.858 145.473C117.37 145.717 117.004 146.206 116.76 146.694C116.272 147.792 116.882 149.134 116.882 150.232C117.004 152.184 116.882 154.136 116.638 155.966C116.516 157.43 116.394 158.894 116.272 160.358C116.15 162.066 115.906 163.774 115.784 165.36C115.54 167.922 115.906 170.118 116.638 172.559C117.492 175.243 118.102 177.805 118.59 180.611C118.834 181.953 119.078 183.173 119.2 184.515C118.956 187.443 117.614 190.249 117.126 193.177C116.394 192.323 116.394 190.737 116.394 189.639C116.394 186.345 116.272 181.953 112.613 180.611C111.149 180.001 109.075 180.245 107.611 180.245C107.002 180.245 106.392 180.367 105.782 180.489C104.44 180.733 103.342 180.245 102 180.367C99.9265 180.611 98.5847 181.831 96.633 180.733C95.2912 180.001 93.7054 178.659 92.1197 178.537C90.5339 178.415 89.1921 179.635 88.3382 180.855C87.3623 182.197 86.6304 183.661 84.9227 184.149C83.9468 184.393 82.849 184.393 81.8731 184.637C75.408 185.979 70.2848 190.371 68.455 196.716C66.7473 202.816 68.0891 209.648 71.6266 214.894C75.896 221.239 82.849 224.533 90.2899 225.509C98.8287 226.607 108.099 224.289 113.589 217.334C114.93 215.626 116.272 214.04 117.858 212.698C118.102 212.454 118.59 212.21 118.956 211.966C118.834 213.064 118.712 214.162 118.59 215.26C118.468 216.968 117.98 218.432 117.736 220.141C117.248 223.069 117.37 226.363 117.248 229.291C117.126 232.585 117.004 235.757 117.248 239.051C117.492 241.979 117.858 244.908 118.712 247.714C119.444 250.52 119.688 253.204 119.566 256.01C119.566 258.816 119.322 261.622 119.2 264.428C119.2 266.258 118.956 268.577 119.688 270.407C120.054 271.139 120.542 271.749 121.274 272.115C122.615 272.725 124.323 272.237 124.567 274.311C124.933 277.483 124.689 280.777 124.445 284.071C124.201 289.317 124.079 294.564 123.713 299.688C123.347 305.544 122.615 311.4 122.493 317.257C122.371 321.649 122.493 326.041 122.005 330.433C121.761 333.117 121.274 335.313 120.054 337.753C119.688 338.485 119.444 339.095 118.956 339.706C118.712 340.072 118.468 340.316 118.224 340.56C115.418 343.366 114.077 347.27 111.149 349.954C109.563 351.418 105.66 354.102 107.367 356.664C108.831 358.982 111.759 358.006 113.467 356.542C114.564 355.566 115.784 353.98 117.37 353.98C117.492 353.98 117.736 353.98 117.858 353.98C117.37 354.712 116.882 355.566 116.394 356.42C112.857 362.032 108.587 366.913 103.098 370.817C100.292 372.891 97.2429 374.355 93.7054 374.843C90.8998 375.209 88.2162 375.331 85.6546 376.429C85.6546 376.429 85.6546 376.429 85.5326 376.429C82.605 377.283 79.6774 377.893 76.8718 378.625C74.6761 379.235 72.2365 379.235 70.4068 380.577C68.821 381.675 68.577 382.651 69.0649 384.481C69.1869 385.091 69.5529 385.579 69.4309 385.945C69.1869 386.067 69.0649 386.189 69.0649 386.433C69.0649 386.433 68.943 386.433 68.943 386.555C68.0891 386.921 66.8693 386.799 66.0154 386.799C61.746 387.043 57.4766 387.043 53.0852 387.409C46.4982 387.898 39.9111 388.386 33.2021 388.386C24.7852 388.386 16.3685 388.508 7.95165 388.63C6.97579 388.63 6.85381 390.216 7.95165 390.216C22.4676 389.972 36.8615 390.338 51.3775 389.118C55.8908 388.752 60.2822 388.752 64.7956 388.508C66.3813 388.386 68.455 388.508 70.0408 387.898C70.4068 387.776 70.6507 387.531 70.7727 387.409C71.0167 387.409 71.2606 387.287 71.6266 387.165C72.1145 387.531 72.6024 387.654 73.2124 387.898C74.7981 388.264 76.5059 388.63 78.2136 388.752C80.5313 388.874 82.971 388.874 85.1667 388.752C86.1425 388.752 87.7283 388.752 88.2162 387.653C89.558 385.091 83.2149 384.603 81.9951 384.481C79.7994 384.359 77.6037 384.237 75.408 384.359C74.4322 384.359 73.4563 384.603 72.6024 384.847C72.3585 384.969 71.9925 385.091 71.7486 385.213C71.3826 384.969 71.0167 384.603 70.6507 384.237C70.6507 384.237 70.6507 384.237 70.5287 384.115C70.1628 382.773 70.2848 382.163 71.8705 381.309C72.9684 380.699 74.3102 380.699 75.53 380.455C79.1895 379.601 82.849 378.747 86.3865 377.649C86.5085 377.649 86.6304 377.527 86.7524 377.405C89.436 376.307 92.3636 376.429 95.2912 375.941C98.0968 375.453 100.536 374.233 102.854 372.647C107.367 369.719 111.637 365.815 114.808 361.422C116.15 359.592 117.492 357.64 118.712 355.688C118.712 355.81 118.712 355.932 118.712 356.054C118.712 360.446 117.37 365.083 115.906 369.231C114.93 371.915 112.125 380.089 118.102 378.381C119.078 378.137 119.81 377.405 120.42 376.673C120.664 377.527 121.152 378.381 121.883 378.869C122.127 378.991 122.249 379.113 122.493 379.235C122.249 379.601 121.883 379.967 121.639 380.333C120.664 381.675 119.2 383.017 119.078 384.725C119.078 384.847 118.956 384.847 118.956 384.969C116.516 384.115 114.32 383.383 111.759 383.383C109.929 383.383 105.172 383.017 104.44 385.457C103.342 388.874 109.563 389.24 111.515 389.24C114.077 389.24 117.492 388.752 119.566 386.921C119.81 387.043 119.932 387.043 120.176 387.043C120.664 387.409 121.273 387.531 122.127 387.653C123.103 387.775 124.079 387.776 125.055 387.776C125.177 387.776 125.299 387.776 125.299 387.776C125.421 387.776 125.421 387.776 125.543 387.776C127.129 387.654 128.836 387.409 130.422 387.409C136.765 387.043 143.108 387.287 149.451 386.921C152.257 386.799 155.185 386.189 157.99 386.067C161.406 386.067 164.821 386.189 168.115 386.189C174.336 386.189 180.557 386.189 186.778 385.823C189.584 385.701 192.511 385.213 195.439 385.335C198.732 385.457 202.148 386.067 205.564 386.311C218.006 387.287 230.57 387.531 243.134 387.409C257.162 387.409 271.19 386.921 285.218 386.799C285.34 386.799 285.462 386.799 285.584 386.799C285.218 388.264 284.974 389.85 284.852 391.314C284.73 391.436 284.608 391.68 284.608 391.924C284.73 393.51 285.34 395.218 286.926 395.828C288.146 396.316 290.097 396.194 291.439 396.438C292.659 396.56 293.879 396.682 295.099 396.56C296.563 396.438 306.321 395.706 303.516 392.29C303.028 391.68 302.052 391.436 301.32 391.314C300.832 391.192 300.344 391.192 299.856 391.192C298.636 391.192 298.27 391.07 297.294 390.338C295.953 389.118 294.367 389.24 292.659 390.094C292.171 390.338 291.561 390.948 291.317 390.826C291.195 390.704 291.195 389.972 291.195 389.972C290.951 389.118 290.585 388.264 289.975 387.653C289.244 386.799 288.268 386.189 287.17 385.823C287.292 385.213 287.414 384.481 287.536 383.871C288.024 380.577 287.902 377.283 287.78 373.989C287.414 367.401 288.146 360.446 286.072 353.98C285.096 350.808 283.876 347.88 282.779 344.708C281.925 342.024 280.949 339.339 279.363 337.021C277.533 334.093 275.703 331.409 274.24 328.359C271.678 323.113 269.36 317.867 266.555 312.742C264.725 309.448 263.749 305.91 262.163 302.494C258.87 294.93 255.21 287.609 251.551 280.167C250.209 277.483 248.867 274.677 247.404 272.115C244.964 267.845 242.646 263.33 239.353 259.67C236.303 256.132 232.278 253.692 227.52 253.814C223.983 253.936 220.811 255.522 218.128 257.84C211.907 263.33 208.735 271.383 204.71 278.459C198.976 288.707 189.828 296.638 182.509 305.666C178.483 310.668 175.068 316.037 170.676 320.795C168.481 323.235 166.285 325.553 164.211 328.237C162.382 330.677 160.552 332.995 158.234 334.947C153.843 338.607 148.72 341.414 144.816 345.562C141.645 348.978 139.449 353.126 137.497 357.396C137.619 351.052 136.643 344.586 136.887 338.241C137.009 335.313 137.009 332.263 137.497 329.335C138.717 327.505 139.937 325.675 140.669 323.723C141.279 322.259 142.376 320.917 143.23 319.453C144.084 318.111 144.938 316.647 145.792 315.182C147.378 312.498 149.086 310.058 150.793 307.496C151.525 306.398 152.501 305.3 153.111 304.202C153.721 302.86 154.087 301.152 154.575 299.688C158.722 287.975 165.675 277.605 172.628 267.357C176.044 262.354 179.581 257.352 182.753 252.106C184.217 249.788 185.558 247.47 186.534 244.908C187.022 243.688 187.388 242.345 187.876 241.125C188.242 240.271 188.852 239.417 189.218 238.563C189.34 238.075 189.34 237.587 189.218 237.221C190.072 234.659 192.633 232.463 194.219 230.267C196.293 227.461 198.489 224.777 201.172 222.459C206.417 218.066 211.663 213.552 217.274 209.526C219.957 207.574 222.763 205.744 225.691 204.036C227.154 203.182 228.618 202.206 230.082 201.352C231.668 200.498 233.498 200.01 235.205 199.278C238.377 198.058 241.548 196.35 244.842 195.74C247.77 195.252 250.575 194.886 253.381 195.008C254.479 196.106 255.576 197.204 256.552 198.302C259.236 201.352 261.188 204.524 262.895 208.184C264.481 211.844 265.701 215.748 266.677 219.653C268.629 227.339 269.604 235.269 270.58 243.077C271.556 250.764 272.288 258.694 274.606 266.136C276.801 273.457 280.217 280.289 283.51 287.121C286.194 292.734 288.634 298.102 289.975 304.202C291.317 310.18 292.171 316.159 292.903 322.259C293.147 324.699 293.513 327.261 293.635 329.701C293.879 332.507 293.757 335.191 294.489 337.997C295.709 343.244 297.172 348.368 299.002 353.37C301.076 359.348 300.466 365.937 303.272 371.671C304.613 374.355 306.199 377.161 307.663 379.845C307.663 379.967 307.785 379.967 307.785 380.089C307.785 380.455 307.907 380.699 308.395 380.821C308.273 380.821 308.395 383.505 308.761 384.115C309.493 385.091 311.078 385.213 312.176 385.335C316.202 385.457 320.227 385.945 324.253 386.067C331.572 386.433 338.891 386.067 346.209 386.067C356.09 386.067 365.971 386.311 375.851 386.067C377.803 386.067 379.633 385.945 381.584 385.701C382.438 385.579 383.658 385.579 384.268 384.725C384.512 383.993 383.17 383.261 382.56 384.115ZM76.6279 386.311C78.0917 386.311 79.5555 386.311 81.0192 386.311C82.483 386.433 84.9227 386.433 86.2645 387.165C86.8744 387.043 86.7524 387.165 85.6546 387.409C85.2886 387.409 84.9227 387.409 84.5567 387.409C83.8248 387.409 83.0929 387.409 82.361 387.409C80.8973 387.409 79.4335 387.409 77.9697 387.287C76.6279 387.165 75.1641 386.799 73.8223 386.555H73.7003C74.6761 386.311 75.652 386.311 76.6279 386.311ZM196.049 170.118C198.001 170.851 199.952 171.583 201.904 172.315C200.074 172.071 198.123 171.827 196.293 171.339C192.267 170.363 188.242 168.654 184.339 167.19C180.923 165.97 177.507 164.506 173.97 163.408C181.533 165.116 188.73 167.434 196.049 170.118ZM104.196 44.6973C103.708 43.1113 103.342 41.5252 103.098 39.8171C104.196 40.5492 105.172 41.6472 105.66 42.7452C105.904 43.4773 106.148 44.2093 106.27 44.9413C106.392 45.5514 106.636 46.7714 105.05 46.1614C104.44 46.0394 104.318 45.0633 104.196 44.6973ZM101.268 44.3313C100.049 43.2333 98.7067 42.1352 97.3649 41.1592C95.7791 40.1831 94.4373 39.3291 93.4615 37.621C92.8515 36.645 92.8516 35.913 94.1934 35.913C94.9253 35.913 95.9011 36.157 96.511 36.401C98.2188 36.889 99.8046 37.987 101.39 38.7191C101.756 41.0372 102.122 43.7213 102.976 45.9174C102.366 45.4294 101.878 44.8193 101.268 44.3313ZM120.054 118.51C119.688 115.216 119.688 111.8 119.566 108.506C119.444 104.724 119.078 101.064 118.468 97.4035C116.882 86.9111 115.296 76.5406 113.467 66.0482C112.979 63.4861 112.491 61.046 111.759 58.6059C111.393 57.5079 111.027 56.4098 110.539 55.4338C110.051 54.3357 109.441 53.7257 108.831 52.7497C108.831 52.7497 108.831 52.7497 108.831 52.6277C107.611 51.1636 106.392 49.6995 105.172 48.3575C105.538 48.4795 105.782 48.4795 106.148 48.4795C109.807 47.8695 107.246 41.6472 105.782 40.1831C104.928 39.2071 103.952 38.5971 102.854 37.987C102.366 34.6929 101.878 31.3988 101.268 28.1046C100.78 25.9086 100.292 23.7125 100.049 21.5164C99.9265 20.7843 99.3166 17.0022 100.171 16.5142C101.634 15.7821 103.952 22.6144 104.318 23.5905C104.44 23.8345 104.562 24.0785 104.562 24.3225C104.074 28.7147 104.684 32.6188 106.88 36.401C107.002 36.645 107.245 36.767 107.489 36.767C107.855 37.377 108.953 37.255 108.953 36.401C108.831 32.0088 107.611 28.1046 106.148 24.0785C106.27 23.1024 106.392 22.1264 106.514 21.1504C106.636 20.2963 106.758 19.3203 107.002 18.4662C107.124 17.7342 107.002 16.8802 107.855 17.1242C108.953 17.4902 109.197 19.6863 109.563 20.7843C110.051 22.4924 110.295 24.0785 110.783 25.7865C110.783 26.0306 110.905 26.2746 110.905 26.3966C110.905 27.7386 110.905 29.0807 110.905 30.4227C110.905 32.1308 110.539 36.767 112.857 37.133C113.223 37.255 113.711 37.011 113.833 36.523C114.564 33.1068 113.345 29.4467 112.491 26.0306C112.613 24.2005 112.735 22.7364 112.857 22.3704C112.979 21.7604 113.101 20.4183 113.589 19.9303C114.32 19.3203 114.442 20.2963 114.686 20.9063C114.93 22.1264 115.052 23.3464 115.174 24.5665C115.784 28.7147 115.54 32.9848 115.54 37.133C115.54 38.1091 117.126 38.1091 117.126 37.133C117.126 34.6929 118.224 32.6188 118.468 30.3007C118.712 28.5927 118.834 25.6645 120.176 24.4445C120.542 24.0785 120.42 23.9565 120.786 24.5665C120.908 24.8105 120.908 25.0545 120.908 25.2985C121.03 26.0306 120.908 26.8846 120.908 27.6166C120.908 29.5687 120.786 31.6428 120.908 33.5949C121.03 37.865 122.615 41.5252 123.835 45.6734C124.445 47.9915 125.177 50.3096 124.933 52.7497C124.811 54.8237 124.567 56.7758 124.689 58.8499V58.9719C124.689 59.0939 124.811 59.3379 124.811 59.4599C126.641 64.8282 128.714 70.3184 129.934 75.9306C130.666 79.1027 131.276 82.2749 131.642 85.569C131.886 87.5211 132.13 89.4732 132.618 91.3032C133.228 93.3773 133.716 95.4514 134.204 97.5255C137.375 110.702 138.961 124.123 139.693 137.543C139.571 137.543 139.327 137.421 139.205 137.421C136.887 137.177 134.448 139.495 132.496 140.471C129.446 142.179 125.665 143.887 122.127 144.619C121.395 144.741 120.298 144.863 119.322 145.107C119.566 142.057 119.81 138.885 120.054 135.835C120.664 129.857 120.786 124.123 120.054 118.51ZM106.026 28.1046C106.514 29.8127 107.002 31.3988 107.245 33.1068C106.514 31.5208 106.148 29.8127 106.026 28.1046ZM119.078 209.526C118.834 209.526 118.712 209.526 118.468 209.648C116.272 210.38 114.077 211.234 111.759 211.966C109.685 212.698 107.489 213.308 105.416 214.04C104.928 214.162 104.318 214.406 103.83 214.528C105.05 212.942 105.782 210.868 105.416 208.794C106.148 208.672 107.002 208.55 107.733 208.184C111.393 206.72 113.833 203.304 115.54 199.888C116.272 198.546 116.882 197.204 117.492 195.862C117.858 195.862 118.102 195.74 118.346 195.374C118.59 195.496 118.956 195.496 119.078 195.74C119.566 196.228 119.444 197.814 119.444 198.546C119.566 199.4 119.566 200.254 119.566 201.108C119.566 204.036 119.322 206.842 119.078 209.526ZM99.4386 209.16C99.5606 209.16 99.8046 209.282 99.9265 209.16C100.049 209.16 100.049 209.16 100.171 209.16C100.292 209.282 100.536 209.282 100.78 209.404C100.292 210.014 99.9266 210.624 99.6826 210.99C99.0727 211.844 96.877 214.772 96.999 216.48C94.4373 216.48 91.0218 215.26 92.2416 212.21C93.3395 209.526 96.755 209.282 99.4386 209.16ZM98.9507 215.992C98.8287 215.992 98.7067 216.114 98.7067 216.114C98.7067 216.114 98.8287 215.992 98.8287 215.87C99.3166 214.284 100.414 212.698 101.39 211.356C101.878 210.624 102.366 209.892 102.976 209.282C102.976 209.16 103.098 209.16 103.22 209.038C103.464 209.038 103.708 209.038 103.83 209.038C103.83 209.526 103.83 210.258 103.708 210.502C103.464 212.82 102.122 214.772 100.171 215.748C99.6826 215.748 99.3166 215.87 98.9507 215.992ZM82.483 186.223C84.6787 185.735 86.6304 185.857 88.0942 183.905C89.436 182.197 90.5339 179.391 93.0955 180.733C94.5593 181.465 95.9011 182.685 97.4869 182.929C98.2188 183.051 98.9507 183.051 99.6826 182.807C101.146 182.441 102 182.075 103.586 182.319C105.294 182.563 107.246 181.953 108.953 181.953C110.783 181.953 112.125 181.831 113.345 183.295C115.296 185.491 114.686 188.175 114.808 190.859C114.93 192.201 115.174 194.153 116.394 194.886C115.174 197.326 113.955 199.766 112.491 201.962C111.271 203.792 109.685 205.378 107.733 206.354C106.88 206.72 105.904 206.964 105.05 207.086C104.44 206.232 103.586 206.476 102.732 207.208C102 207.208 101.39 207.208 100.658 207.208C98.9507 206.598 97.3649 205.5 95.5352 204.89C93.4615 204.158 90.6559 204.524 88.4602 204.646C85.5326 204.768 78.7016 206.11 78.4576 201.84C78.3356 199.4 80.0434 189.883 76.9938 187.931C78.7016 187.199 80.5313 186.589 82.483 186.223ZM107.245 220.751C103.22 223.313 98.4628 224.289 93.8274 224.167C85.8985 224.045 77.6037 220.995 72.9684 214.162C69.3089 208.672 67.9671 201.352 70.5287 195.13C71.5046 192.811 73.0904 190.737 75.1641 189.151C75.2861 189.151 75.408 189.151 75.408 189.151C77.6037 188.663 76.9938 195.496 76.8718 196.716C76.7498 198.912 76.018 202.572 77.4817 204.524C79.5555 207.33 84.6787 206.476 87.7283 206.354C88.5822 206.354 89.558 206.354 90.4119 206.354C92.1197 206.354 93.7054 206.11 95.2912 206.72C96.0231 206.964 96.633 207.33 97.3649 207.696C93.9494 208.184 90.2899 209.404 90.4119 213.552C90.6559 217.822 96.1451 218.555 99.3166 217.7C99.5606 217.7 99.6826 217.578 99.9265 217.456C100.902 217.212 102 216.724 102.854 216.48C105.294 215.748 107.855 214.894 110.295 214.162C112.125 213.552 113.833 212.942 115.662 212.332C115.296 212.698 114.93 213.064 114.564 213.43C112.125 215.992 110.417 218.799 107.245 220.751ZM110.417 387.653C109.319 387.653 106.514 387.775 105.904 386.433C105.416 385.213 107.855 385.091 108.587 385.091C111.637 384.847 114.32 385.335 117.248 386.311C115.174 387.409 112.247 387.653 110.417 387.653ZM289.244 389.85C289.488 390.46 289.366 391.314 289.732 391.802C290.219 392.412 291.317 392.29 291.927 392.046C292.781 391.802 293.391 391.07 294.367 390.948C295.587 390.826 295.831 391.558 296.685 392.168C298.026 393.144 299.978 392.168 301.32 392.9C301.93 393.266 302.052 393.388 301.32 393.754C301.076 393.876 300.71 393.876 300.466 393.876C299.612 393.998 298.758 394.12 297.904 394.364C295.709 394.852 293.757 395.096 291.561 394.73C289.732 394.486 287.17 394.608 286.316 393.022C286.072 391.07 286.438 389.118 286.926 387.165C287.902 387.897 288.878 388.752 289.244 389.85ZM140.425 354.956C142.011 351.906 143.84 348.856 146.158 346.416C148.11 344.342 150.427 342.634 152.745 340.926C157.258 337.631 161.406 334.581 164.699 330.067C168.481 324.943 173.238 320.673 177.02 315.671C178.971 313.108 180.679 310.302 182.753 307.74C184.704 305.3 186.778 302.86 188.852 300.542C192.999 295.784 197.391 291.147 201.416 286.145C206.417 279.801 209.345 272.359 213.736 265.526C218.006 259.06 225.325 251.984 233.62 256.742C238.621 259.67 241.304 264.794 244.11 269.675C245.696 272.237 247.16 274.921 248.501 277.605C252.161 284.803 255.576 292.002 258.992 299.322C260.09 301.884 261.432 304.324 262.285 307.008C263.993 312.254 267.165 317.013 269.482 322.015C271.312 325.919 273.02 329.945 275.216 333.605C275.947 334.825 276.801 336.045 277.533 337.143C279.241 339.706 280.339 342.39 281.193 345.318C283.144 351.54 285.706 357.03 285.584 363.74C285.462 370.939 286.804 378.015 285.584 385.091V385.213C285.462 385.213 285.34 385.213 285.096 385.213C284.974 385.213 284.974 385.213 284.852 385.213C284.852 385.213 284.852 385.213 284.73 385.213C284.73 385.213 284.73 385.213 284.608 385.213C284.486 385.213 284.486 385.213 284.364 385.213C260.822 385.579 237.157 386.433 213.614 385.213C207.637 384.847 201.66 384.237 195.683 383.749C192.877 383.627 189.95 383.993 187.022 384.115C184.217 384.237 181.289 384.359 178.483 384.359C172.506 384.481 166.529 384.481 160.552 384.359C154.575 384.237 148.598 385.213 142.62 385.335C139.449 385.457 136.399 385.457 133.228 385.457C131.398 385.457 129.568 385.579 127.739 385.701C126.763 385.823 125.665 385.945 124.689 386.067H124.567C123.103 386.067 121.761 385.945 120.42 385.579C120.298 385.457 120.176 385.335 120.176 385.213C120.176 385.213 120.176 385.213 120.176 385.091C120.298 384.725 120.42 384.359 120.542 383.993C120.542 383.749 120.542 383.627 120.542 383.505C121.152 382.529 122.127 381.553 122.615 380.943C123.103 380.333 123.591 379.723 124.079 379.113C125.421 378.503 126.763 377.161 127.495 375.941C129.202 376.307 130.788 374.599 131.52 373.135C131.642 373.013 131.642 373.013 131.764 372.891C132.13 372.159 132.496 371.427 132.862 370.695C134.57 369.719 135.789 368.377 136.155 366.425C136.521 364.839 136.765 363.253 136.887 361.666C138.229 359.47 139.205 357.152 140.425 354.956ZM134.936 362.886C134.326 364.351 133.716 365.815 132.984 367.279C133.106 365.449 133.35 363.74 133.472 361.91C133.594 360.812 132.008 360.934 131.886 361.91C131.642 364.107 131.154 366.181 131.398 368.255C131.276 369.231 131.154 370.085 130.91 370.939C130.788 371.671 129.446 373.989 128.348 374.477C129.568 371.061 129.202 367.157 128.958 363.619C128.958 362.764 127.617 362.52 127.373 363.374C126.397 366.303 126.519 369.475 125.787 372.525C125.543 373.379 125.543 373.989 125.787 374.599C125.055 375.697 124.201 376.673 123.347 377.649C122.859 377.771 122.371 377.649 122.005 377.283C121.517 376.673 121.395 375.819 121.274 375.087C121.274 374.843 121.274 374.599 121.274 374.233C121.395 373.745 121.639 373.257 121.761 372.891C122.371 371.061 122.859 369.231 123.103 367.401C123.103 367.157 123.103 366.791 123.225 366.547C123.713 364.839 123.957 363.13 123.469 361.422C123.225 360.69 122.127 360.69 121.883 361.422C121.517 362.764 121.761 363.985 121.761 365.327C121.761 365.693 121.761 366.059 121.639 366.425C121.152 368.255 120.42 369.963 120.054 371.549C119.81 372.403 119.688 373.379 119.688 374.355C119.2 375.331 118.712 376.185 117.98 376.673C117.492 377.039 116.272 377.527 115.662 377.161C115.052 376.551 115.54 374.965 115.662 374.355C116.15 372.159 117.126 369.963 117.736 367.767C118.834 364.107 120.054 359.958 119.932 356.054C119.932 355.444 119.81 354.712 119.566 353.98C121.03 351.54 122.615 349.1 124.201 346.782C126.275 343.976 128.348 341.048 130.422 338.363C132.008 336.289 133.716 334.337 135.18 332.263C134.936 334.947 134.936 337.753 135.058 340.438C135.18 347.026 136.033 353.736 135.545 360.324C135.545 360.69 135.545 361.056 135.423 361.422C135.423 361.91 135.18 362.398 134.936 362.886ZM186.29 240.393C185.192 243.077 184.461 245.64 183.119 248.202C180.435 253.204 177.02 257.962 173.848 262.598C167.261 272.359 160.308 281.997 155.429 292.856C154.331 295.296 153.355 297.736 152.501 300.176C152.013 301.396 151.769 302.738 151.037 303.958C150.183 305.3 149.208 306.642 148.354 308.106C146.89 310.546 145.182 312.742 143.84 315.305C143.108 316.525 142.376 317.745 141.645 318.965C140.913 320.185 139.815 321.405 139.205 322.747C138.961 323.357 138.595 324.089 138.229 324.699C138.595 322.869 139.083 321.039 139.449 319.209C140.791 313.352 142.62 307.252 143.108 301.274C143.596 295.052 142.498 289.195 142.011 282.973C141.767 279.923 141.767 276.873 141.523 273.823C141.401 271.505 140.913 268.577 142.986 266.868C144.694 265.404 147.134 266.624 148.72 265.16C150.305 263.818 150.305 260.89 149.939 259.06C149.573 256.498 148.476 254.058 148.598 251.374C148.72 248.69 149.817 246.128 151.647 244.176C152.501 243.322 153.355 242.589 154.453 241.979C155.551 241.369 156.77 241.125 157.99 240.637C158.844 240.271 159.576 239.661 160.552 239.417C162.016 238.929 163.601 238.685 165.187 238.441C171.164 237.465 177.142 237.465 183.119 237.221C183.851 237.221 186.412 236.733 187.144 237.465C187.144 237.709 187.144 237.953 187.388 238.197C187.388 238.807 186.534 239.783 186.29 240.393ZM234.595 197.814C233.01 198.424 231.302 198.912 229.716 199.644C228.008 200.498 226.301 201.596 224.593 202.572C221.421 204.28 218.494 206.354 215.566 208.428C209.833 212.698 203.978 217.212 198.732 222.093C196.293 224.289 194.341 226.973 192.267 229.657C190.804 231.609 188.852 233.439 187.754 235.635C187.632 235.513 187.388 235.513 187.266 235.391C186.168 235.025 184.217 235.513 183.119 235.513C181.655 235.513 180.069 235.635 178.605 235.635C172.75 235.879 166.773 236.123 161.162 237.465C158.966 237.953 157.014 238.929 155.063 239.783C153.111 240.637 151.281 241.979 149.939 243.81C147.012 247.592 146.768 252.106 147.866 256.62C148.232 258.084 148.72 259.67 148.598 261.256C148.598 262.354 148.232 263.696 147.256 264.306C146.768 264.55 145.67 264.428 145.182 264.55C143.108 264.794 141.523 265.77 140.547 267.601C139.571 269.431 139.815 271.505 139.937 273.457C140.181 276.629 140.181 279.923 140.425 283.095C141.035 289.439 142.255 295.662 141.523 302.006C140.791 308.594 138.717 315.182 137.253 321.771C136.765 324.089 136.155 326.529 135.667 328.969C135.058 329.823 134.448 330.677 133.96 331.531C132.008 334.459 129.568 337.143 127.373 339.95C124.201 344.098 121.273 348.368 118.468 352.76C116.638 351.906 114.564 353.37 113.345 354.468C112.369 355.322 109.319 358.25 108.831 355.444C108.587 353.736 111.271 352.15 112.369 351.052C115.052 348.49 116.272 344.952 118.712 342.39C118.956 342.39 119.2 342.146 119.322 341.902C119.566 341.17 120.298 340.682 120.664 340.072C121.03 339.461 121.274 338.729 121.639 337.997C122.737 335.801 123.103 333.605 123.347 331.165C123.835 326.773 123.713 322.503 123.835 318.111C123.957 312.132 124.689 306.276 125.055 300.298C125.421 295.052 125.421 289.683 125.787 284.437C125.909 281.387 126.153 278.215 125.909 275.043C125.787 272.725 125.299 271.383 122.981 271.017C121.152 270.651 120.664 269.919 120.542 268.089C120.42 266.868 120.542 265.526 120.542 264.306C120.664 261.5 120.908 258.694 120.908 255.888C121.03 250.032 118.834 244.664 118.59 238.807C118.346 235.513 118.468 232.341 118.712 229.047C118.834 225.753 118.712 222.215 119.688 219.043C120.542 216.236 120.42 213.064 120.664 210.136C121.03 206.964 121.395 203.792 121.274 200.62C121.274 199.034 121.517 195.374 119.81 194.398C119.444 194.153 118.956 194.153 118.59 194.153V194.031C119.566 192.079 120.542 190.493 120.786 188.297C120.908 186.833 120.908 185.369 120.786 184.027C120.786 181.587 120.298 179.025 120.054 176.585C119.688 174.145 118.834 171.827 118.346 169.508C117.858 167.068 117.858 164.384 117.858 161.822C117.858 161.578 117.858 161.334 117.858 161.212C118.102 158.772 118.468 156.21 118.712 153.77C118.956 151.452 119.2 149.134 119.444 146.938C120.054 146.694 120.664 146.694 121.274 146.572C124.323 145.962 127.129 144.863 129.934 143.643C131.398 143.033 132.984 142.301 134.326 141.447C135.545 140.715 136.887 139.617 138.351 139.251C139.205 139.007 139.693 139.373 139.937 140.105C139.937 140.959 140.059 141.813 140.059 142.667C139.937 143.887 139.693 145.107 139.571 145.717C139.327 148.158 139.205 150.964 140.547 153.16C142.011 155.356 144.694 156.332 147.012 157.308C150.061 158.65 152.989 159.626 156.161 160.48C157.99 160.968 159.82 161.212 161.65 161.822C163.723 162.432 165.675 163.286 167.749 163.896C171.652 165.116 175.556 166.214 179.459 167.678C183.363 169.142 187.388 170.485 191.414 171.949C193.121 172.559 194.951 173.291 196.781 173.657C198.976 174.145 201.172 174.145 203.368 174.511C208.125 175.243 212.76 176.951 217.274 178.171C221.787 179.391 226.667 180.367 230.814 182.441C234.839 184.393 239.109 185.979 243.012 188.175C245.94 189.883 248.623 192.079 251.429 194.031C249.233 194.031 247.038 194.398 244.842 194.764C241.304 194.764 238.011 196.472 234.595 197.814Z" fill="black"/>
</g>
<g filter="url(#filter2_d_57_217)">
<path d="M299.368 377.771C299.368 377.771 298.88 375.209 297.904 370.573" stroke="#49243E" stroke-width="0.4" stroke-miterlimit="10"/>
<path d="M294.489 356.664C282.9 312.254 248.989 212.21 177.751 196.838C158.478 192.689 142.864 178.781 137.375 159.748C129.812 133.639 120.786 96.6715 117.98 60.802" stroke="#49243E" stroke-width="0.4" stroke-miterlimit="10" stroke-dasharray="11.76 11.76"/>
<path d="M117.492 53.7257C117.37 51.2856 117.248 48.8455 117.248 46.4054" stroke="#49243E" stroke-width="0.4" stroke-miterlimit="10"/>
</g>
</g>
<defs>
<filter id="filter0_d_57_217" x="7.17334" y="9.4592" width="427.224" height="422.251" filterUnits="userSpaceOnUse" color-interpolation-filters="sRGB">
<feFlood flood-opacity="0" result="BackgroundImageFix"/>
<feColorMatrix in="SourceAlpha" type="matrix" values="0 0 0 0 0 0 0 0 0 0 0 0 0 0 0 0 0 0 127 0" result="hardAlpha"/>
<feOffset dx="30" dy="15"/>
<feGaussianBlur stdDeviation="10.05"/>
<feComposite in2="hardAlpha" operator="out"/>
<feColorMatrix type="matrix" values="0 0 0 0 0 0 0 0 0 0 0 0 0 0 0 0 0 0 0.05 0"/>
<feBlend mode="normal" in2="BackgroundImageFix" result="effect1_dropShadow_57_217"/>
<feBlend mode="normal" in="SourceGraphic" in2="effect1_dropShadow_57_217" result="shape"/>
</filter>
<filter id="filter1_d_57_217" x="0.873341" y="0.259205" width="413.724" height="418.651" filterUnits="userSpaceOnUse" color-interpolation-filters="sRGB">
<feFlood flood-opacity="0" result="BackgroundImageFix"/>
<feColorMatrix in="SourceAlpha" type="matrix" values="0 0 0 0 0 0 0 0 0 0 0 0 0 0 0 0 0 0 127 0" result="hardAlpha"/>
<feOffset dx="12" dy="4"/>
<feGaussianBlur stdDeviation="9.15"/>
<feComposite in2="hardAlpha" operator="out"/>
<feColorMatrix type="matrix" values="0 0 0 0 0 0 0 0 0 0 0 0 0 0 0 0 0 0 0.25 0"/>
<feBlend mode="normal" in2="BackgroundImageFix" result="effect1_dropShadow_57_217"/>
<feBlend mode="normal" in="SourceGraphic" in2="effect1_dropShadow_57_217" result="shape"/>
</filter>
<filter id="filter2_d_57_217" x="110.748" y="32.1054" width="219.117" height="368.003" filterUnits="userSpaceOnUse" color-interpolation-filters="sRGB">
<feFlood flood-opacity="0" result="BackgroundImageFix"/>
<feColorMatrix in="SourceAlpha" type="matrix" values="0 0 0 0 0 0 0 0 0 0 0 0 0 0 0 0 0 0 127 0" result="hardAlpha"/>
<feOffset dx="12" dy="4"/>
<feGaussianBlur stdDeviation="9.15"/>
<feComposite in2="hardAlpha" operator="out"/>
<feColorMatrix type="matrix" values="0 0 0 0 0 0 0 0 0 0 0 0 0 0 0 0 0 0 0.25 0"/>
<feBlend mode="normal" in2="BackgroundImageFix" result="effect1_dropShadow_57_217"/>
<feBlend mode="normal" in="SourceGraphic" in2="effect1_dropShadow_57_217" result="shape"/>
</filter>
</defs>
</svg>
