<svg width="156" height="156" viewBox="0 0 156 156" fill="none" xmlns="http://www.w3.org/2000/svg">
<path d="M141.391 92.3988C149.385 57.5361 127.604 22.7938 92.741 14.7998C57.8783 6.8057 23.136 28.587 15.142 63.4497C7.14792 98.3124 28.9293 133.055 63.7919 141.049C98.6546 149.043 133.397 127.261 141.391 92.3988Z" fill="#B9C4E1"/>
<path d="M78.282 104.543C92.1957 104.543 103.475 88.9204 103.475 69.649C103.475 50.3776 92.1957 34.755 78.282 34.755C64.3683 34.755 53.089 50.3776 53.089 69.649C53.089 88.9204 64.3683 104.543 78.282 104.543Z" fill="white"/>
<path d="M77.884 102.31C56.796 102.31 37.944 107.364 25.406 115.303C37.136 131.869 56.439 142.694 78.282 142.694C99.971 142.694 119.155 132.022 130.909 115.654C118.375 107.513 99.281 102.31 77.884 102.31Z" fill="white"/>
<path d="M82.118 119.059H74.445C69.151 119.059 64.82 114.728 64.82 109.434V87.556C64.82 82.262 69.151 77.931 74.445 77.931H82.118C87.412 77.931 91.743 82.262 91.743 87.556V109.434C91.743 114.728 87.412 119.059 82.118 119.059Z" fill="white"/>
<path d="M57.067 71.631C57.821 77.225 56.579 82.076 54.293 82.465C52.007 82.854 49.542 78.634 48.787 73.04C48.033 67.446 49.275 62.595 51.561 62.206C53.847 61.817 56.313 66.037 57.067 71.631Z" fill="white"/>
<path d="M99.497 71.631C98.743 77.225 99.985 82.076 102.271 82.465C104.557 82.854 107.022 78.634 107.777 73.04C108.531 67.446 107.289 62.595 105.003 62.206C102.717 61.817 100.251 66.037 99.497 71.631Z" fill="white"/>
<path d="M53.969 68.276C53.122 62.69 52.275 57.104 51.427 51.519C51.119 49.491 50.822 47.354 51.563 45.441C52.303 43.528 54.475 42.005 56.396 42.723C55.627 38.837 59.926 35.967 63.672 34.678C69.949 32.517 76.68 31.417 83.263 32.268C89.847 33.119 96.275 36.031 100.713 40.968C102.118 42.531 103.328 44.306 103.997 46.297C105.285 50.13 104.465 54.313 103.635 58.27C102.975 61.414 102.316 64.558 101.656 67.702C101.506 68.42 101.337 69.173 100.847 69.719C100.066 70.589 98.749 70.654 97.58 70.656C85.088 70.683 72.595 70.71 60.103 70.737C57.754 70.742 54.688 70.163 54.378 67.835" fill="white"/>
</svg>
