<svg width="83" height="54" viewBox="0 0 83 54" fill="none" xmlns="http://www.w3.org/2000/svg">
<path d="M48.39 0.646834L81.9608 10.6082C82.1737 10.6713 82.3876 10.5127 82.3876 10.2917V5.61513C82.3876 2.51398 79.8614 0 76.7452 0H48.4848C48.1022 0 48.0233 0.538024 48.39 0.646834Z" fill="url(#paint0_linear_2_32)"/>
<path d="M66.7069 45.2577L81.1484 53.8281C81.5069 54.0408 81.9496 54.0571 82.323 53.8714C82.914 53.5773 83.1639 52.8695 82.8876 52.2721L79.2635 44.4371C78.8489 43.5408 79.0516 42.4815 79.768 41.7995L81.6702 39.9888C82.1284 39.5526 82.3876 38.949 82.3876 38.318V13.6264C82.3876 13.1775 81.9472 12.8593 81.5182 12.9983L61.4381 19.5045C61.1648 19.593 60.9798 19.8466 60.9798 20.1326V34.6141C60.9798 35.8598 61.2082 37.0951 61.6538 38.2592L62.3618 40.1085C63.1864 42.2628 64.7174 44.077 66.7069 45.2577Z" fill="#BB8493"/>
<path d="M33.1972 0.756774C34.7908 0.263613 36.4968 0.260131 38.0924 0.746781L71.0951 10.8123C72.0235 11.0955 72.0371 12.3986 71.1148 12.7009L58.901 16.7042L40.5067 11.4302C40.2389 11.3534 40.0536 11.1167 39.999 10.8448C39.665 9.18094 38.1891 7.92725 36.4189 7.92725C34.4026 7.92725 32.768 9.55394 32.768 11.5606C32.768 13.5672 34.4026 15.1939 36.4189 15.1939C37.2663 15.1939 38.0462 14.9066 38.6658 14.4246C38.8529 14.279 39.096 14.2143 39.3242 14.2797L53.7121 18.405L38.258 23.4704C36.5604 24.0268 34.7275 24.0229 33.0323 23.4591L0.680115 12.6995C-0.236795 12.3945 -0.223105 11.0991 0.700047 10.8135L33.1972 0.756774Z" fill="url(#paint1_linear_2_32)"/>
<path fill-rule="evenodd" clip-rule="evenodd" d="M56.9658 21.2406C57.3931 21.1084 57.8267 21.4261 57.8267 21.8714V36.0298C57.8267 36.6656 57.6949 37.2947 57.4396 37.8776L56.2216 40.6583C55.4831 42.3445 53.8104 43.4347 51.9621 43.4347H20.8195C16.7868 43.4347 13.5176 40.1813 13.5176 36.1681V21.8759C13.5176 21.4293 13.9537 21.1114 14.3816 21.2461L31.4197 26.6082C32.4233 26.924 33.4696 27.0848 34.5221 27.0848H36.5158C37.5516 27.0848 38.5815 26.9291 39.5706 26.623L56.9658 21.2406ZM48.0356 37.3241C49.502 37.3241 50.6908 36.1411 50.6908 34.6817C50.6908 33.2223 49.502 32.0393 48.0356 32.0393C46.5691 32.0393 45.3803 33.2223 45.3803 34.6817C45.3803 36.1411 46.5691 37.3241 48.0356 37.3241ZM38.4104 34.6817C38.4104 36.1411 37.2216 37.3241 35.7551 37.3241C34.2887 37.3241 33.0999 36.1411 33.0999 34.6817C33.0999 33.2223 34.2887 32.0393 35.7551 32.0393C37.2216 32.0393 38.4104 33.2223 38.4104 34.6817ZM23.4747 37.3241C24.9411 37.3241 26.1299 36.1411 26.1299 34.6817C26.1299 33.2223 24.9411 32.0393 23.4747 32.0393C22.0083 32.0393 20.8195 33.2223 20.8195 34.6817C20.8195 36.1411 22.0083 37.3241 23.4747 37.3241Z" fill="url(#paint2_linear_2_32)"/>
<defs>
<linearGradient id="paint0_linear_2_32" x1="41.5" y1="0" x2="41.5" y2="263.354" gradientUnits="userSpaceOnUse">
<stop stop-color="#49243E"/>
<stop offset="1" stop-color="#B06D6D"/>
</linearGradient>
<linearGradient id="paint1_linear_2_32" x1="2.70653" y1="27.1277" x2="83.1804" y2="27.1277" gradientUnits="userSpaceOnUse">
<stop stop-color="#574E9F"/>
<stop offset="1" stop-color="#574E9F"/>
</linearGradient>
<linearGradient id="paint2_linear_2_32" x1="13.5176" y1="34.1863" x2="57.6608" y2="34.1863" gradientUnits="userSpaceOnUse">
<stop stop-color="#574E9F"/>
<stop offset="1" stop-color="#574E9F"/>
</linearGradient>
</defs>
</svg>
