<svg width="1440" height="923" viewBox="0 0 1440 923" fill="none" xmlns="http://www.w3.org/2000/svg">
<g filter="url(#filter0_f_94_20)">
<ellipse cx="1115.97" cy="457.175" rx="190.625" ry="225.5" transform="rotate(9.34218 1115.97 457.175)" fill="#DBAFA0" fill-opacity="0.17"/>
</g>
<g filter="url(#filter1_f_94_20)">
<ellipse cx="208.702" cy="770.453" rx="190.625" ry="225.5" transform="rotate(9.34218 208.702 770.453)" fill="#704264" fill-opacity="0.17"/>
</g>
<g filter="url(#filter2_f_94_20)">
<ellipse cx="786.702" cy="938.453" rx="190.625" ry="225.5" transform="rotate(9.34218 786.702 938.453)" fill="#BB8493" fill-opacity="0.17"/>
</g>
<g filter="url(#filter3_f_94_20)">
<ellipse cx="538.702" cy="322.453" rx="190.625" ry="225.5" transform="rotate(9.34218 538.702 322.453)" fill="#49243E" fill-opacity="0.17"/>
</g>
<path d="M973 550C1235.4 576 1395.33 391.5 1442.5 296L1600 935.5L1310 962L567 982.5C593 827.5 710.6 524 973 550Z" fill="#8858AE" fill-opacity="0.1"/>
<path d="M221.879 576.611C-27.0326 489.589 -94.3 254.868 -96.8198 148.385L-509.19 661.919L-257.378 808.183L407.758 1139.94C449.511 988.423 470.791 663.632 221.879 576.611Z" fill="#8858AE" fill-opacity="0.1"/>
<circle cx="1291" cy="744" r="53" stroke="#BB8493" stroke-opacity="0.7" stroke-width="20" stroke-dasharray="5 5"/>
<circle cx="1307.43" cy="590.632" r="4.56785" transform="rotate(-144.128 1307.43 590.632)" fill="#BB8493" fill-opacity="0.7"/>
<circle cx="1326.81" cy="604.347" r="4.56785" transform="rotate(-144.128 1326.81 604.347)" fill="#BB8493" fill-opacity="0.7"/>
<circle cx="1346.55" cy="618.311" r="4.56785" transform="rotate(-144.128 1346.55 618.311)" fill="#BB8493" fill-opacity="0.7"/>
<circle cx="1316.95" cy="597.365" r="4.56785" transform="rotate(-144.128 1316.95 597.365)" fill="#BB8493" fill-opacity="0.7"/>
<circle cx="1336.33" cy="611.08" r="4.56785" transform="rotate(-144.128 1336.33 611.08)" fill="#BB8493" fill-opacity="0.7"/>
<circle cx="1356.06" cy="625.044" r="4.56785" transform="rotate(-144.128 1356.06 625.044)" fill="#BB8493" fill-opacity="0.7"/>
<circle cx="1328.68" cy="560.599" r="4.56785" transform="rotate(-144.128 1328.68 560.599)" fill="#BB8493" fill-opacity="0.7"/>
<circle cx="1348.07" cy="574.314" r="4.56785" transform="rotate(-144.128 1348.07 574.314)" fill="#BB8493" fill-opacity="0.7"/>
<circle cx="1367.8" cy="588.278" r="4.56785" transform="rotate(-144.128 1367.8 588.278)" fill="#BB8493" fill-opacity="0.7"/>
<circle cx="1338.2" cy="567.332" r="4.56785" transform="rotate(-144.128 1338.2 567.332)" fill="#BB8493" fill-opacity="0.7"/>
<circle cx="1357.58" cy="581.047" r="4.56785" transform="rotate(-144.128 1357.58 581.047)" fill="#BB8493" fill-opacity="0.7"/>
<circle cx="1377.32" cy="595.011" r="4.56785" transform="rotate(-144.128 1377.32 595.011)" fill="#BB8493" fill-opacity="0.7"/>
<circle cx="1314.72" cy="580.333" r="4.56785" transform="rotate(-144.128 1314.72 580.333)" fill="#BB8493" fill-opacity="0.7"/>
<circle cx="1334.1" cy="594.048" r="4.56785" transform="rotate(-144.128 1334.1 594.048)" fill="#BB8493" fill-opacity="0.7"/>
<circle cx="1353.84" cy="608.012" r="4.56785" transform="rotate(-144.128 1353.84 608.012)" fill="#BB8493" fill-opacity="0.7"/>
<circle cx="1324.24" cy="587.066" r="4.56785" transform="rotate(-144.128 1324.24 587.066)" fill="#BB8493" fill-opacity="0.7"/>
<circle cx="1343.62" cy="600.781" r="4.56785" transform="rotate(-144.128 1343.62 600.781)" fill="#BB8493" fill-opacity="0.7"/>
<circle cx="1363.35" cy="614.745" r="4.56785" transform="rotate(-144.128 1363.35 614.745)" fill="#BB8493" fill-opacity="0.7"/>
<circle cx="1335.97" cy="550.299" r="4.56785" transform="rotate(-144.128 1335.97 550.299)" fill="#BB8493" fill-opacity="0.7"/>
<circle cx="1355.35" cy="564.014" r="4.56785" transform="rotate(-144.128 1355.35 564.014)" fill="#BB8493" fill-opacity="0.7"/>
<circle cx="1375.09" cy="577.979" r="4.56785" transform="rotate(-144.128 1375.09 577.979)" fill="#BB8493" fill-opacity="0.7"/>
<circle cx="1345.49" cy="557.032" r="4.56785" transform="rotate(-144.128 1345.49 557.032)" fill="#BB8493" fill-opacity="0.7"/>
<circle cx="1364.87" cy="570.747" r="4.56785" transform="rotate(-144.128 1364.87 570.747)" fill="#BB8493" fill-opacity="0.7"/>
<circle cx="1384.6" cy="584.712" r="4.56785" transform="rotate(-144.128 1384.6 584.712)" fill="#BB8493" fill-opacity="0.7"/>
<circle cx="1321.7" cy="570.466" r="4.56785" transform="rotate(-144.128 1321.7 570.466)" fill="#BB8493" fill-opacity="0.7"/>
<circle cx="1341.08" cy="584.181" r="4.56785" transform="rotate(-144.128 1341.08 584.181)" fill="#BB8493" fill-opacity="0.7"/>
<circle cx="1360.82" cy="598.145" r="4.56785" transform="rotate(-144.128 1360.82 598.145)" fill="#BB8493" fill-opacity="0.7"/>
<circle cx="1331.22" cy="577.199" r="4.56785" transform="rotate(-144.128 1331.22 577.199)" fill="#BB8493" fill-opacity="0.7"/>
<circle cx="1350.6" cy="590.914" r="4.56785" transform="rotate(-144.128 1350.6 590.914)" fill="#BB8493" fill-opacity="0.7"/>
<circle cx="1370.33" cy="604.878" r="4.56785" transform="rotate(-144.128 1370.33 604.878)" fill="#BB8493" fill-opacity="0.7"/>
<circle cx="1342.95" cy="540.432" r="4.56785" transform="rotate(-144.128 1342.95 540.432)" fill="#BB8493" fill-opacity="0.7"/>
<circle cx="1362.34" cy="554.148" r="4.56785" transform="rotate(-144.128 1362.34 554.148)" fill="#BB8493" fill-opacity="0.7"/>
<circle cx="1382.07" cy="568.112" r="4.56785" transform="rotate(-144.128 1382.07 568.112)" fill="#BB8493" fill-opacity="0.7"/>
<circle cx="1352.47" cy="547.165" r="4.56785" transform="rotate(-144.128 1352.47 547.165)" fill="#BB8493" fill-opacity="0.7"/>
<circle cx="1371.85" cy="560.881" r="4.56785" transform="rotate(-144.128 1371.85 560.881)" fill="#BB8493" fill-opacity="0.7"/>
<circle cx="1391.59" cy="574.845" r="4.56785" transform="rotate(-144.128 1391.59 574.845)" fill="#BB8493" fill-opacity="0.7"/>
<circle cx="1164.79" cy="879.402" r="2.92172" transform="rotate(171.227 1164.79 879.402)" fill="#BB8493" fill-opacity="0.5"/>
<circle cx="1179.78" cy="876.931" r="2.92172" transform="rotate(171.227 1179.78 876.931)" fill="#BB8493" fill-opacity="0.5"/>
<circle cx="1195.03" cy="874.416" r="2.92172" transform="rotate(171.227 1195.03 874.416)" fill="#BB8493" fill-opacity="0.5"/>
<circle cx="1172.15" cy="878.189" r="2.92172" transform="rotate(171.227 1172.15 878.189)" fill="#BB8493" fill-opacity="0.5"/>
<circle cx="1187.13" cy="875.719" r="2.92172" transform="rotate(171.227 1187.13 875.719)" fill="#BB8493" fill-opacity="0.5"/>
<circle cx="1202.39" cy="873.203" r="2.92172" transform="rotate(171.227 1202.39 873.203)" fill="#BB8493" fill-opacity="0.5"/>
<circle cx="1160.96" cy="856.182" r="2.92172" transform="rotate(171.227 1160.96 856.182)" fill="#BB8493" fill-opacity="0.5"/>
<circle cx="1175.95" cy="853.712" r="2.92172" transform="rotate(171.227 1175.95 853.712)" fill="#BB8493" fill-opacity="0.5"/>
<circle cx="1191.2" cy="851.196" r="2.92172" transform="rotate(171.227 1191.2 851.196)" fill="#BB8493" fill-opacity="0.5"/>
<circle cx="1168.32" cy="854.969" r="2.92172" transform="rotate(171.227 1168.32 854.969)" fill="#BB8493" fill-opacity="0.5"/>
<circle cx="1183.3" cy="852.499" r="2.92172" transform="rotate(171.227 1183.3 852.499)" fill="#BB8493" fill-opacity="0.5"/>
<circle cx="1198.56" cy="849.984" r="2.92172" transform="rotate(171.227 1198.56 849.984)" fill="#BB8493" fill-opacity="0.5"/>
<circle cx="1163.48" cy="871.439" r="2.92172" transform="rotate(171.227 1163.48 871.439)" fill="#BB8493" fill-opacity="0.5"/>
<circle cx="1178.46" cy="868.969" r="2.92172" transform="rotate(171.227 1178.46 868.969)" fill="#BB8493" fill-opacity="0.5"/>
<circle cx="1193.72" cy="866.453" r="2.92172" transform="rotate(171.227 1193.72 866.453)" fill="#BB8493" fill-opacity="0.5"/>
<circle cx="1170.83" cy="870.226" r="2.92172" transform="rotate(171.227 1170.83 870.226)" fill="#BB8493" fill-opacity="0.5"/>
<circle cx="1185.82" cy="867.756" r="2.92172" transform="rotate(171.227 1185.82 867.756)" fill="#BB8493" fill-opacity="0.5"/>
<circle cx="1201.08" cy="865.241" r="2.92172" transform="rotate(171.227 1201.08 865.241)" fill="#BB8493" fill-opacity="0.5"/>
<circle cx="1159.65" cy="848.219" r="2.92172" transform="rotate(171.227 1159.65 848.219)" fill="#BB8493" fill-opacity="0.5"/>
<circle cx="1174.63" cy="845.749" r="2.92172" transform="rotate(171.227 1174.63 845.749)" fill="#BB8493" fill-opacity="0.5"/>
<circle cx="1189.89" cy="843.234" r="2.92172" transform="rotate(171.227 1189.89 843.234)" fill="#BB8493" fill-opacity="0.5"/>
<circle cx="1167.01" cy="847.006" r="2.92172" transform="rotate(171.227 1167.01 847.006)" fill="#BB8493" fill-opacity="0.5"/>
<circle cx="1181.99" cy="844.536" r="2.92172" transform="rotate(171.227 1181.99 844.536)" fill="#BB8493" fill-opacity="0.5"/>
<circle cx="1197.25" cy="842.021" r="2.92172" transform="rotate(171.227 1197.25 842.021)" fill="#BB8493" fill-opacity="0.5"/>
<circle cx="1162.22" cy="863.81" r="2.92172" transform="rotate(171.227 1162.22 863.81)" fill="#BB8493" fill-opacity="0.5"/>
<circle cx="1177.21" cy="861.34" r="2.92172" transform="rotate(171.227 1177.21 861.34)" fill="#BB8493" fill-opacity="0.5"/>
<circle cx="1192.46" cy="858.825" r="2.92172" transform="rotate(171.227 1192.46 858.825)" fill="#BB8493" fill-opacity="0.5"/>
<circle cx="1169.58" cy="862.598" r="2.92172" transform="rotate(171.227 1169.58 862.598)" fill="#BB8493" fill-opacity="0.5"/>
<circle cx="1184.56" cy="860.127" r="2.92172" transform="rotate(171.227 1184.56 860.127)" fill="#BB8493" fill-opacity="0.5"/>
<circle cx="1199.82" cy="857.612" r="2.92172" transform="rotate(171.227 1199.82 857.612)" fill="#BB8493" fill-opacity="0.5"/>
<circle cx="1158.39" cy="840.591" r="2.92172" transform="rotate(171.227 1158.39 840.591)" fill="#BB8493" fill-opacity="0.5"/>
<circle cx="1173.38" cy="838.12" r="2.92172" transform="rotate(171.227 1173.38 838.12)" fill="#BB8493" fill-opacity="0.5"/>
<circle cx="1188.63" cy="835.605" r="2.92172" transform="rotate(171.227 1188.63 835.605)" fill="#BB8493" fill-opacity="0.5"/>
<circle cx="1165.75" cy="839.378" r="2.92172" transform="rotate(171.227 1165.75 839.378)" fill="#BB8493" fill-opacity="0.5"/>
<circle cx="1180.73" cy="836.908" r="2.92172" transform="rotate(171.227 1180.73 836.908)" fill="#BB8493" fill-opacity="0.5"/>
<circle cx="1195.99" cy="834.392" r="2.92172" transform="rotate(171.227 1195.99 834.392)" fill="#BB8493" fill-opacity="0.5"/>
<defs>
<filter id="filter0_f_94_20" x="720.013" y="28.1969" width="791.922" height="857.956" filterUnits="userSpaceOnUse" color-interpolation-filters="sRGB">
<feFlood flood-opacity="0" result="BackgroundImageFix"/>
<feBlend mode="normal" in="SourceGraphic" in2="BackgroundImageFix" result="shape"/>
<feGaussianBlur stdDeviation="102.15" result="effect1_foregroundBlur_94_20"/>
</filter>
<filter id="filter1_f_94_20" x="-187.259" y="341.475" width="791.922" height="857.956" filterUnits="userSpaceOnUse" color-interpolation-filters="sRGB">
<feFlood flood-opacity="0" result="BackgroundImageFix"/>
<feBlend mode="normal" in="SourceGraphic" in2="BackgroundImageFix" result="shape"/>
<feGaussianBlur stdDeviation="102.15" result="effect1_foregroundBlur_94_20"/>
</filter>
<filter id="filter2_f_94_20" x="390.741" y="509.475" width="791.922" height="857.956" filterUnits="userSpaceOnUse" color-interpolation-filters="sRGB">
<feFlood flood-opacity="0" result="BackgroundImageFix"/>
<feBlend mode="normal" in="SourceGraphic" in2="BackgroundImageFix" result="shape"/>
<feGaussianBlur stdDeviation="102.15" result="effect1_foregroundBlur_94_20"/>
</filter>
<filter id="filter3_f_94_20" x="142.741" y="-106.525" width="791.922" height="857.956" filterUnits="userSpaceOnUse" color-interpolation-filters="sRGB">
<feFlood flood-opacity="0" result="BackgroundImageFix"/>
<feBlend mode="normal" in="SourceGraphic" in2="BackgroundImageFix" result="shape"/>
<feGaussianBlur stdDeviation="102.15" result="effect1_foregroundBlur_94_20"/>
</filter>
</defs>
</svg>
